,
Brought to you by  http://www.scenetime.com/signup.php
 
 Hottest scene tracker on the net !!!   
 
No fake torrents from scenebalance 
shame on those who comment fake before downloading my torrents

    seed back for speed


 



...................................NFO:.................................................
SCR0N

Hidden 2011 HDRip.XviD.AC3-5.1-SCR0N

   General
      Complete name :Hidden 2011 HDRip.XviD.AC3-5.1-SCR0N
      Format : AVI
      Format/Info : Audio Video Interleave
      File size : 1.60 GiB
      Duration : 1h 18mn
      Overall bit rate : 2 940 Kbps
   Video #0
      ID : 0
      Format : MPEG-4 Visual
      Format profile : AdvancedSimple@L5
      Format settings, BVOP : Yes
      Format settings, QPel : No
      Format settings, GMC : No warppoints
      Format settings, Matrix : Custom
      Codec ID : XVID
      Codec ID/Hint : XviD
      Duration : 1h 18mn
      Bit rate : 2 033 Kbps
      Width : 720 pixels
      Height : 400 pixels
      Display aspect ratio : 16:9
      Frame rate : 25.000 fps
      Original frame rate : 23.976 fps
      Resolution : 24 bits
      Colorimetry : 4:2:0
      Scan type : Progressive
      Bits/(Pixel*Frame) : 0.282
      Stream size : 1.11 GiB (69%)
      Writing library : XviD 58
   Audio #1
      ID : 1
      Format : AC-3
      Format/Info : Audio Coding 3
      Codec ID : 2000
      Duration : 1h 18mn
      Bit rate mode : Constant
      Bit rate : 448 Kbps
      Channel(s) : 6 channels
      Channel positions : Front: L C R, Surround: L R, LFE
      Sampling rate : 48.0 KHz
      Stream size : 250 MiB (15%)
      Alignment : Aligned on interleaves
      Interleave, duration : 64 ms (1.60 video frames)
      Interleave, preload duration : 192 ms
      

[img]http://img98.imageshack.us/img98/3810/hidden1r.jpg[/img]
[img]http://img13.imageshack.us/img13/8126/hidden2.jpg[/img]
[img]http://img156.imageshack.us/img156/2026/hidden3.jpg[/img]

[img]http://img156.imageshack.us/img156/2026/hidden3.jpg[/img]